<mxfile host="app.diagrams.net" modified="2022-04-09T06:03:00.623Z" agent="5.0 (Windows NT 10.0; Win64; x64) AppleWebKit/537.36 (KHTML, like Gecko) Chrome/100.0.4896.75 Safari/537.36" etag="fNrFqVZScr-AU9RO_8aT" version="17.4.1" type="github">
  <diagram id="R2lEEEUBdFMjLlhIrx00" name="Page-1">
    <mxGraphModel dx="1888" dy="1679" grid="1" gridSize="10" guides="1" tooltips="1" connect="1" arrows="1" fold="1" page="1" pageScale="1" pageWidth="850" pageHeight="1100" math="0" shadow="0" extFonts="Permanent Marker^https://fonts.googleapis.com/css?family=Permanent+Marker">
      <root>
        <mxCell id="0" />
        <mxCell id="1" parent="0" />
        <mxCell id="DJpkBVunwzQXoW-eDpss-1" value="User(Patient,Doctor,Admin)" style="rounded=0;whiteSpace=wrap;html=1;" vertex="1" parent="1">
          <mxGeometry x="-700" y="-420" width="120" height="60" as="geometry" />
        </mxCell>
        <mxCell id="DJpkBVunwzQXoW-eDpss-2" value="Username" style="ellipse;whiteSpace=wrap;html=1;" vertex="1" parent="1">
          <mxGeometry x="-800" y="-540" width="90" height="50" as="geometry" />
        </mxCell>
        <mxCell id="DJpkBVunwzQXoW-eDpss-3" value="about" style="ellipse;whiteSpace=wrap;html=1;" vertex="1" parent="1">
          <mxGeometry x="-830" y="-480" width="90" height="50" as="geometry" />
        </mxCell>
        <mxCell id="DJpkBVunwzQXoW-eDpss-4" value="Lastname" style="ellipse;whiteSpace=wrap;html=1;" vertex="1" parent="1">
          <mxGeometry x="-580" y="-480" width="90" height="50" as="geometry" />
        </mxCell>
        <mxCell id="DJpkBVunwzQXoW-eDpss-5" value="Id&lt;span style=&quot;white-space: pre&quot;&gt;	&lt;/span&gt;&lt;span style=&quot;white-space: pre&quot;&gt;	&lt;/span&gt;" style="ellipse;whiteSpace=wrap;html=1;" vertex="1" parent="1">
          <mxGeometry x="-700" y="-580" width="90" height="50" as="geometry" />
        </mxCell>
        <mxCell id="DJpkBVunwzQXoW-eDpss-6" value="Firstname" style="ellipse;whiteSpace=wrap;html=1;" vertex="1" parent="1">
          <mxGeometry x="-610" y="-540" width="90" height="50" as="geometry" />
        </mxCell>
        <mxCell id="DJpkBVunwzQXoW-eDpss-7" value="Email&lt;span style=&quot;color: rgba(0 , 0 , 0 , 0) ; font-family: monospace ; font-size: 0px&quot;&gt;%3CmxGraphModel%3E%3Croot%3E%3CmxCell%20id%3D%220%22%2F%3E%3CmxCell%20id%3D%221%22%20parent%3D%220%22%2F%3E%3CmxCell%20id%3D%222%22%20value%3D%22%22%20style%3D%22ellipse%3BwhiteSpace%3Dwrap%3Bhtml%3D1%3B%22%20vertex%3D%221%22%20parent%3D%221%22%3E%3CmxGeometry%20x%3D%22-760%22%20y%3D%22-550%22%20width%3D%2290%22%20height%3D%2250%22%20as%3D%22geometry%22%2F%3E%3C%2FmxCell%3E%3C%2Froot%3E%3C%2FmxGraphModel%3E&lt;/span&gt;" style="ellipse;whiteSpace=wrap;html=1;" vertex="1" parent="1">
          <mxGeometry x="-830" y="-400" width="90" height="50" as="geometry" />
        </mxCell>
        <mxCell id="DJpkBVunwzQXoW-eDpss-8" value="Password" style="ellipse;whiteSpace=wrap;html=1;" vertex="1" parent="1">
          <mxGeometry x="-540" y="-410" width="90" height="50" as="geometry" />
        </mxCell>
        <mxCell id="DJpkBVunwzQXoW-eDpss-9" value="Phone" style="ellipse;whiteSpace=wrap;html=1;" vertex="1" parent="1">
          <mxGeometry x="-800" y="-340" width="90" height="50" as="geometry" />
        </mxCell>
        <mxCell id="DJpkBVunwzQXoW-eDpss-10" value="Enable/Disable" style="ellipse;whiteSpace=wrap;html=1;" vertex="1" parent="1">
          <mxGeometry x="-570" y="-340" width="90" height="50" as="geometry" />
        </mxCell>
        <mxCell id="DJpkBVunwzQXoW-eDpss-11" value="" style="endArrow=none;html=1;rounded=0;entryX=0.187;entryY=1.01;entryDx=0;entryDy=0;entryPerimeter=0;" edge="1" parent="1" target="DJpkBVunwzQXoW-eDpss-1">
          <mxGeometry width="50" height="50" relative="1" as="geometry">
            <mxPoint x="-720" y="-330" as="sourcePoint" />
            <mxPoint x="-670" y="-380" as="targetPoint" />
          </mxGeometry>
        </mxCell>
        <mxCell id="DJpkBVunwzQXoW-eDpss-12" value="" style="endArrow=none;html=1;rounded=0;entryX=0;entryY=0;entryDx=0;entryDy=0;" edge="1" parent="1" target="DJpkBVunwzQXoW-eDpss-1">
          <mxGeometry width="50" height="50" relative="1" as="geometry">
            <mxPoint x="-742.44" y="-450.6" as="sourcePoint" />
            <mxPoint x="-700" y="-480.0000000000001" as="targetPoint" />
          </mxGeometry>
        </mxCell>
        <mxCell id="DJpkBVunwzQXoW-eDpss-13" value="" style="endArrow=none;html=1;rounded=0;entryX=0.187;entryY=1.01;entryDx=0;entryDy=0;entryPerimeter=0;" edge="1" parent="1">
          <mxGeometry width="50" height="50" relative="1" as="geometry">
            <mxPoint x="-742.44" y="-370.3" as="sourcePoint" />
            <mxPoint x="-700" y="-399.7000000000001" as="targetPoint" />
          </mxGeometry>
        </mxCell>
        <mxCell id="DJpkBVunwzQXoW-eDpss-14" value="" style="endArrow=none;html=1;rounded=0;entryX=0.25;entryY=0;entryDx=0;entryDy=0;exitX=1;exitY=1;exitDx=0;exitDy=0;" edge="1" parent="1" source="DJpkBVunwzQXoW-eDpss-2" target="DJpkBVunwzQXoW-eDpss-1">
          <mxGeometry width="50" height="50" relative="1" as="geometry">
            <mxPoint x="-730" y="-500" as="sourcePoint" />
            <mxPoint x="-687.56" y="-519.4000000000001" as="targetPoint" />
          </mxGeometry>
        </mxCell>
        <mxCell id="DJpkBVunwzQXoW-eDpss-15" value="" style="endArrow=none;html=1;rounded=0;entryX=0.187;entryY=1.01;entryDx=0;entryDy=0;entryPerimeter=0;" edge="1" parent="1">
          <mxGeometry width="50" height="50" relative="1" as="geometry">
            <mxPoint x="-590" y="-420" as="sourcePoint" />
            <mxPoint x="-567.56" y="-439.4000000000001" as="targetPoint" />
          </mxGeometry>
        </mxCell>
        <mxCell id="DJpkBVunwzQXoW-eDpss-16" value="" style="endArrow=none;html=1;rounded=0;entryX=0.187;entryY=1.01;entryDx=0;entryDy=0;entryPerimeter=0;exitX=0.75;exitY=0;exitDx=0;exitDy=0;" edge="1" parent="1" source="DJpkBVunwzQXoW-eDpss-1">
          <mxGeometry width="50" height="50" relative="1" as="geometry">
            <mxPoint x="-622.44" y="-460.6" as="sourcePoint" />
            <mxPoint x="-580" y="-490.0000000000001" as="targetPoint" />
          </mxGeometry>
        </mxCell>
        <mxCell id="DJpkBVunwzQXoW-eDpss-17" value="" style="endArrow=none;html=1;rounded=0;entryX=0.187;entryY=1.01;entryDx=0;entryDy=0;entryPerimeter=0;exitX=0.5;exitY=0;exitDx=0;exitDy=0;" edge="1" parent="1" source="DJpkBVunwzQXoW-eDpss-1">
          <mxGeometry width="50" height="50" relative="1" as="geometry">
            <mxPoint x="-650" y="-430" as="sourcePoint" />
            <mxPoint x="-637.56" y="-530.0000000000001" as="targetPoint" />
          </mxGeometry>
        </mxCell>
        <mxCell id="DJpkBVunwzQXoW-eDpss-18" value="" style="endArrow=none;html=1;rounded=0;entryX=0.187;entryY=1.01;entryDx=0;entryDy=0;entryPerimeter=0;exitX=1;exitY=0.75;exitDx=0;exitDy=0;" edge="1" parent="1" source="DJpkBVunwzQXoW-eDpss-1">
          <mxGeometry width="50" height="50" relative="1" as="geometry">
            <mxPoint x="-582.44" y="-350" as="sourcePoint" />
            <mxPoint x="-540" y="-379.4000000000001" as="targetPoint" />
          </mxGeometry>
        </mxCell>
        <mxCell id="DJpkBVunwzQXoW-eDpss-19" value="" style="endArrow=none;html=1;rounded=0;entryX=0.187;entryY=1.01;entryDx=0;entryDy=0;entryPerimeter=0;exitX=0.833;exitY=0.997;exitDx=0;exitDy=0;exitPerimeter=0;" edge="1" parent="1" source="DJpkBVunwzQXoW-eDpss-1">
          <mxGeometry width="50" height="50" relative="1" as="geometry">
            <mxPoint x="-612.44" y="-290" as="sourcePoint" />
            <mxPoint x="-570" y="-319.4000000000001" as="targetPoint" />
          </mxGeometry>
        </mxCell>
        <mxCell id="DJpkBVunwzQXoW-eDpss-20" value="User_Role" style="rounded=0;whiteSpace=wrap;html=1;" vertex="1" parent="1">
          <mxGeometry x="-480" y="-180" width="120" height="60" as="geometry" />
        </mxCell>
        <mxCell id="DJpkBVunwzQXoW-eDpss-21" value="Role" style="rounded=0;whiteSpace=wrap;html=1;" vertex="1" parent="1">
          <mxGeometry x="-170" y="-345" width="120" height="60" as="geometry" />
        </mxCell>
        <mxCell id="DJpkBVunwzQXoW-eDpss-22" value="has" style="rhombus;whiteSpace=wrap;html=1;" vertex="1" parent="1">
          <mxGeometry x="-730" y="-220" width="80" height="80" as="geometry" />
        </mxCell>
        <mxCell id="DJpkBVunwzQXoW-eDpss-23" value="has" style="rhombus;whiteSpace=wrap;html=1;" vertex="1" parent="1">
          <mxGeometry x="-230" y="-200" width="80" height="80" as="geometry" />
        </mxCell>
        <mxCell id="DJpkBVunwzQXoW-eDpss-24" value="" style="endArrow=classic;html=1;rounded=0;entryX=0.5;entryY=0;entryDx=0;entryDy=0;" edge="1" parent="1" target="DJpkBVunwzQXoW-eDpss-23">
          <mxGeometry width="50" height="50" relative="1" as="geometry">
            <mxPoint x="-135" y="-285" as="sourcePoint" />
            <mxPoint x="-85" y="-335" as="targetPoint" />
          </mxGeometry>
        </mxCell>
        <mxCell id="DJpkBVunwzQXoW-eDpss-25" value="" style="endArrow=classic;html=1;rounded=0;entryX=0.5;entryY=0;entryDx=0;entryDy=0;" edge="1" parent="1" target="DJpkBVunwzQXoW-eDpss-22">
          <mxGeometry width="50" height="50" relative="1" as="geometry">
            <mxPoint x="-640" y="-360" as="sourcePoint" />
            <mxPoint x="-590" y="-410" as="targetPoint" />
          </mxGeometry>
        </mxCell>
        <mxCell id="DJpkBVunwzQXoW-eDpss-26" value="1" style="edgeLabel;html=1;align=center;verticalAlign=middle;resizable=0;points=[];" vertex="1" connectable="0" parent="DJpkBVunwzQXoW-eDpss-25">
          <mxGeometry x="-0.6516" y="5" relative="1" as="geometry">
            <mxPoint as="offset" />
          </mxGeometry>
        </mxCell>
        <mxCell id="DJpkBVunwzQXoW-eDpss-27" value="" style="endArrow=classic;html=1;rounded=0;entryX=-0.007;entryY=0.143;entryDx=0;entryDy=0;entryPerimeter=0;" edge="1" parent="1" target="DJpkBVunwzQXoW-eDpss-20">
          <mxGeometry width="50" height="50" relative="1" as="geometry">
            <mxPoint x="-650" y="-180" as="sourcePoint" />
            <mxPoint x="-600" y="-230" as="targetPoint" />
          </mxGeometry>
        </mxCell>
        <mxCell id="DJpkBVunwzQXoW-eDpss-28" value="" style="endArrow=classic;html=1;rounded=0;exitX=0;exitY=0.5;exitDx=0;exitDy=0;entryX=1.02;entryY=0.37;entryDx=0;entryDy=0;entryPerimeter=0;" edge="1" parent="1" source="DJpkBVunwzQXoW-eDpss-23" target="DJpkBVunwzQXoW-eDpss-20">
          <mxGeometry width="50" height="50" relative="1" as="geometry">
            <mxPoint x="-360" y="-160" as="sourcePoint" />
            <mxPoint x="-350" y="-130" as="targetPoint" />
          </mxGeometry>
        </mxCell>
        <mxCell id="DJpkBVunwzQXoW-eDpss-29" value="UserRoleId" style="ellipse;whiteSpace=wrap;html=1;" vertex="1" parent="1">
          <mxGeometry x="-530" y="-250" width="90" height="50" as="geometry" />
        </mxCell>
        <mxCell id="DJpkBVunwzQXoW-eDpss-30" value="UserId" style="ellipse;whiteSpace=wrap;html=1;" vertex="1" parent="1">
          <mxGeometry x="-450" y="-280" width="90" height="50" as="geometry" />
        </mxCell>
        <mxCell id="DJpkBVunwzQXoW-eDpss-31" value="RoleId" style="ellipse;whiteSpace=wrap;html=1;" vertex="1" parent="1">
          <mxGeometry x="-360" y="-250" width="90" height="50" as="geometry" />
        </mxCell>
        <mxCell id="DJpkBVunwzQXoW-eDpss-32" value="RoleId" style="ellipse;whiteSpace=wrap;html=1;" vertex="1" parent="1">
          <mxGeometry x="-260" y="-450" width="90" height="50" as="geometry" />
        </mxCell>
        <mxCell id="DJpkBVunwzQXoW-eDpss-33" value="Role" style="ellipse;whiteSpace=wrap;html=1;" vertex="1" parent="1">
          <mxGeometry x="-110" y="-450" width="90" height="50" as="geometry" />
        </mxCell>
        <mxCell id="DJpkBVunwzQXoW-eDpss-34" value="" style="endArrow=none;html=1;rounded=0;exitX=0.593;exitY=-0.043;exitDx=0;exitDy=0;exitPerimeter=0;" edge="1" parent="1" source="DJpkBVunwzQXoW-eDpss-20">
          <mxGeometry width="50" height="50" relative="1" as="geometry">
            <mxPoint x="-445" y="-180" as="sourcePoint" />
            <mxPoint x="-395" y="-230" as="targetPoint" />
          </mxGeometry>
        </mxCell>
        <mxCell id="DJpkBVunwzQXoW-eDpss-35" value="" style="endArrow=none;html=1;rounded=0;entryX=0.5;entryY=1;entryDx=0;entryDy=0;" edge="1" parent="1" target="DJpkBVunwzQXoW-eDpss-29">
          <mxGeometry width="50" height="50" relative="1" as="geometry">
            <mxPoint x="-475" y="-180" as="sourcePoint" />
            <mxPoint x="-425" y="-230" as="targetPoint" />
          </mxGeometry>
        </mxCell>
        <mxCell id="DJpkBVunwzQXoW-eDpss-36" value="" style="endArrow=none;html=1;rounded=0;entryX=0;entryY=1;entryDx=0;entryDy=0;" edge="1" parent="1" target="DJpkBVunwzQXoW-eDpss-31">
          <mxGeometry width="50" height="50" relative="1" as="geometry">
            <mxPoint x="-380" y="-180" as="sourcePoint" />
            <mxPoint x="-330" y="-230" as="targetPoint" />
          </mxGeometry>
        </mxCell>
        <mxCell id="DJpkBVunwzQXoW-eDpss-37" value="" style="endArrow=none;html=1;rounded=0;exitX=0;exitY=0;exitDx=0;exitDy=0;" edge="1" parent="1" source="DJpkBVunwzQXoW-eDpss-21">
          <mxGeometry width="50" height="50" relative="1" as="geometry">
            <mxPoint x="-250" y="-350" as="sourcePoint" />
            <mxPoint x="-200" y="-400" as="targetPoint" />
          </mxGeometry>
        </mxCell>
        <mxCell id="DJpkBVunwzQXoW-eDpss-38" value="" style="endArrow=none;html=1;rounded=0;exitX=0.75;exitY=0;exitDx=0;exitDy=0;" edge="1" parent="1" source="DJpkBVunwzQXoW-eDpss-21">
          <mxGeometry width="50" height="50" relative="1" as="geometry">
            <mxPoint x="-100" y="-350" as="sourcePoint" />
            <mxPoint x="-60" y="-400" as="targetPoint" />
          </mxGeometry>
        </mxCell>
        <mxCell id="DJpkBVunwzQXoW-eDpss-39" value="It may be Patient,Doctor or Admin" style="text;html=1;align=center;verticalAlign=middle;resizable=0;points=[];autosize=1;strokeColor=none;fillColor=none;" vertex="1" parent="1">
          <mxGeometry x="-395" y="-340" width="190" height="20" as="geometry" />
        </mxCell>
        <mxCell id="DJpkBVunwzQXoW-eDpss-40" value="" style="endArrow=none;html=1;rounded=0;" edge="1" parent="1" source="DJpkBVunwzQXoW-eDpss-39">
          <mxGeometry width="50" height="50" relative="1" as="geometry">
            <mxPoint x="-220" y="-285" as="sourcePoint" />
            <mxPoint x="-170" y="-335" as="targetPoint" />
          </mxGeometry>
        </mxCell>
        <mxCell id="DJpkBVunwzQXoW-eDpss-41" value="n" style="text;html=1;align=center;verticalAlign=middle;resizable=0;points=[];autosize=1;strokeColor=none;fillColor=none;" vertex="1" parent="1">
          <mxGeometry x="-540" y="-190" width="20" height="20" as="geometry" />
        </mxCell>
        <mxCell id="DJpkBVunwzQXoW-eDpss-42" value="1" style="text;html=1;align=center;verticalAlign=middle;resizable=0;points=[];autosize=1;strokeColor=none;fillColor=none;" vertex="1" parent="1">
          <mxGeometry x="-160" y="-280" width="20" height="20" as="geometry" />
        </mxCell>
        <mxCell id="DJpkBVunwzQXoW-eDpss-43" value="n" style="text;html=1;align=center;verticalAlign=middle;resizable=0;points=[];autosize=1;strokeColor=none;fillColor=none;" vertex="1" parent="1">
          <mxGeometry x="-350" y="-180" width="20" height="20" as="geometry" />
        </mxCell>
      </root>
    </mxGraphModel>
  </diagram>
</mxfile>
